<?xml version="1.0" encoding="UTF-8"?>
<svg width="2000px" height="640px" viewBox="0 0 2000 640" version="1.1" xmlns="http://www.w3.org/2000/svg" xmlns:xlink="http://www.w3.org/1999/xlink">
    <!-- Generator: Sketch 53.2 (72643) - https://sketchapp.com -->
    <title>web-hero-srv-ilo</title>
    <desc>Created with Sketch.</desc>
    <defs>
        <rect id="path-1" x="0" y="0" width="2000" height="640"></rect>
    </defs>
    <g id="Page-1" stroke="none" stroke-width="1" fill="none" fill-rule="evenodd">
        <g id="Web-application-development-_v1-✅" transform="translate(0.000000, -566.000000)">
            <g id="Mask" transform="translate(0.000000, 566.000000)">
                <mask id="mask-2" fill="white">
                    <use xlink:href="#path-1"></use>
                </mask>
                <use fill="#313D3F" fill-rule="evenodd" opacity="0" xlink:href="#path-1"></use>
                <g id="web-illo-s2-v1" stroke-width="1" fill-rule="evenodd" mask="url(#mask-2)">
                    <g transform="translate(-176.000000, -108.000000)">
                        <g id="Group" opacity="0.04" stroke="none" stroke-width="1" fill="none" fill-rule="evenodd" transform="translate(0.000000, 370.329646)">
                            <path d="M719.164565,344.217402 C719.145285,344.652048 719.125056,345.086694 719.085548,345.52134 L35.8219656,345.52134 C35.7033209,345.086694 35.5651589,344.652048 35.4467513,344.217402 L719.164565,344.217402 Z" id="Path" fill="#FFFFFF" fill-rule="nonzero"></path>
                            <path d="M710.966704,305.296807 L26.7548732,305.296807 C26.6562397,304.862161 26.577084,304.427515 26.4980666,303.992869 L710.3542,303.992869 C710.571735,304.427515 710.768963,304.86222 710.966704,305.296807 Z" id="Path" fill="#FFFFFF" fill-rule="nonzero"></path>
                            <path d="M677.838606,265.072313 L18.7739545,265.072313 C18.6950951,264.637667 18.5961653,264.203021 18.5171478,263.748619 L676.001609,263.748619 C676.613599,264.183245 677.226102,264.617832 677.838606,265.072313 Z" id="Path" fill="#FFFFFF" fill-rule="nonzero"></path>
                            <rect id="Rectangle" fill="#FFFFFF" fill-rule="nonzero" x="10.2797188" y="223.524046" width="524.260694" height="1.32377372"></rect>
                            <rect id="Rectangle" fill="#FFFFFF" fill-rule="nonzero" x="573.436625" y="223.524046" width="1.32387782" height="1.32377372"></rect>
                            <path d="M422.967837,183.299573 C423.205127,183.734219 423.461933,184.168865 423.738257,184.603511 L3.56325674,184.603511 C3.4842393,184.168865 3.42497623,183.734219 3.36571315,183.299573 L422.967837,183.299573 Z" id="Path" fill="#FFFFFF" fill-rule="nonzero"></path>
                            <path d="M407.342338,144.378978 L0.283895,144.378978 C0.283895,143.944332 0.283895,143.509685 0.303649358,143.075039 L406.966866,143.075039 C407.085254,143.509666 407.203899,143.944391 407.342338,144.378978 Z" id="Path" fill="#FFFFFF" fill-rule="nonzero"></path>
                            <path d="M395.43046,102.830829 C395.568878,103.265475 395.706803,103.700121 395.845301,104.154524 L4.76827258,104.154524 C4.86704437,103.719878 4.96581616,103.265475 5.10393864,102.830829 L395.43046,102.830829 Z" id="Path" fill="#FFFFFF" fill-rule="nonzero"></path>
                            <path d="M379.25164,63.9102338 L22.4086774,63.9102338 C22.7052891,63.4755878 23.0013081,63.0409418 23.3371322,62.6062958 L378.500738,62.6062958 C378.773154,63.0278228 379.023784,63.46304 379.25164,63.9102338 Z" id="Path" fill="#FFFFFF" fill-rule="nonzero"></path>
                            <path d="M336.819121,22.381743 C337.569786,22.7966324 338.320452,23.251035 339.071118,23.6856811 L71.6366169,23.6856811 C72.5652495,23.2312784 73.5331933,22.7966324 74.481363,22.381743 L336.819121,22.381743 Z" id="Path" fill="#FFFFFF" fill-rule="nonzero"></path>
                            <path d="M212.722401,0.23463177 L212.722401,425.990163 L211.418613,425.990163 L211.418613,0.274145044 C211.853209,0.254269867 212.287805,0.254269867 212.722401,0.23463177 Z" id="Path" fill="#FFFFFF" fill-rule="nonzero"></path>
                            <path d="M252.962029,0.728547699 L252.962029,425.990163 L251.638487,425.990163 L251.638487,0.64952115 C252.072865,0.669218518 252.527176,0.688994912 252.962029,0.728547699 Z" id="Path" fill="#FFFFFF" fill-rule="nonzero"></path>
                            <path d="M293.181902,5.98375392 L293.181902,427.195258 C292.747306,427.175502 292.292956,427.175502 291.858518,427.155745 L291.858518,5.68740436 C292.31271,5.78622706 292.747306,5.88499049 293.181902,5.98375392 Z" id="Path" fill="#FFFFFF" fill-rule="nonzero"></path>
                            <path d="M333.401656,20.504823 L333.401656,428.439966 C332.967061,428.420209 332.532326,428.420209 332.097869,428.400453 L332.097869,19.8331961 C332.532326,20.0504598 332.967179,20.2875395 333.401656,20.504823 Z" id="Path" fill="#FFFFFF" fill-rule="nonzero"></path>
                            <path d="M372.317861,53.2613669 C372.772211,53.854066 373.206807,54.4467651 373.62147,55.0592209 L373.62147,429.605548 C373.186875,429.605548 372.752397,429.585792 372.317861,429.566035 L372.317861,53.2613669 Z" id="Path" fill="#FFFFFF" fill-rule="nonzero"></path>
                            <path d="M413.861118,163.760219 L413.861118,430.534091 C413.426522,430.534091 412.991788,430.514334 412.537576,430.514334 L412.537576,160.184267 C412.952575,161.389403 413.406807,162.57488 413.861118,163.760219 Z" id="Path" fill="#FFFFFF" fill-rule="nonzero"></path>
                            <path d="M452.777361,211.235477 C453.211957,211.413287 453.646435,211.57134 454.080971,211.74915 L454.080971,430.988552 C453.646375,431.008309 453.211839,431.008309 452.777361,430.988552 L452.777361,211.235477 Z" id="Path" fill="#FFFFFF" fill-rule="nonzero"></path>
                            <path d="M492.996938,219.454199 L494.301042,219.632008 L494.301042,430.810703 C493.866268,430.83046 493.431732,430.83046 492.996938,430.83046 L492.996938,219.454199 Z" id="Path" fill="#FFFFFF" fill-rule="nonzero"></path>
                            <path d="M534.540413,223.524046 L534.540413,429.763582 C534.105817,429.783338 533.671339,429.803095 533.217029,429.822852 L533.217029,223.524046 L534.540413,223.524046 Z" id="Path" fill="#FFFFFF" fill-rule="nonzero"></path>
                            <path d="M574.760523,223.524046 L574.760523,427.649621 C574.325927,427.689135 573.871577,427.708891 573.436645,427.728648 L573.436645,223.524046 L574.760523,223.524046 Z" id="Path" fill="#FFFFFF" fill-rule="nonzero"></path>
                            <polygon id="Path" fill="#FFFFFF" fill-rule="nonzero" points="613.67649 237.650101 614.9801 237.946451 614.9801 424.686185 613.67649 424.686185"></polygon>
                            <path d="M655.220024,251.697031 L655.220024,415.519066 C654.789006,415.693556 654.346709,415.838767 653.896146,415.953712 L653.896146,251.084575 C654.331078,251.262444 654.785428,251.479747 655.220024,251.697031 Z" id="Path" fill="#FFFFFF" fill-rule="nonzero"></path>
                            <path d="M696.743685,283.07059 L696.743685,391.119639 C696.309089,391.554285 695.874118,391.949418 695.440075,392.364307 L695.440075,281.529572 C695.874104,282.043219 696.308641,282.556891 696.743685,283.07059 Z" id="Path" fill="#FFFFFF" fill-rule="nonzero"></path>
                        </g>
                        <g id="Group" opacity="0.04" stroke="none" stroke-width="1" fill="none" fill-rule="evenodd" transform="translate(1770.965927, 0.000000)">
                            <rect id="Rectangle" fill="#FFFFFF" fill-rule="nonzero" x="130.959034" y="424.686146" width="1.32362101" height="1.30399732"></rect>
                            <rect id="Rectangle" fill="#FFFFFF" fill-rule="nonzero" x="171.198641" y="424.686146" width="1.30360985" height="1.30399732"></rect>
                            <rect id="Rectangle" fill="#FFFFFF" fill-rule="nonzero" x="211.418495" y="424.686146" width="402.257995" height="1.30399732"></rect>
                            <path d="M702.926542,384.441896 C702.551328,384.896298 702.176113,385.330944 701.800405,385.76559 L50.5190895,385.76559 L50.5190895,384.441896 L702.926542,384.441896 Z" id="Path" fill="#FFFFFF" fill-rule="nonzero"></path>
                            <path d="M719.164565,344.217402 C719.145285,344.652048 719.125056,345.086694 719.085548,345.52134 L35.8219656,345.52134 C35.7033209,345.086694 35.5651589,344.652048 35.4467513,344.217402 L719.164565,344.217402 Z" id="Path" fill="#FFFFFF" fill-rule="nonzero"></path>
                            <path d="M710.966704,305.296807 L26.7548732,305.296807 C26.6562397,304.862161 26.577084,304.427515 26.4980666,303.992869 L710.354299,303.992869 C710.571735,304.427515 710.768963,304.86222 710.966704,305.296807 Z" id="Path" fill="#FFFFFF" fill-rule="nonzero"></path>
                            <path d="M677.838606,265.072313 L18.7739545,265.072313 C18.6950951,264.637667 18.5961653,264.203021 18.5171478,263.748619 L676.001609,263.748619 C676.613599,264.183245 677.226102,264.617832 677.838606,265.072313 Z" id="Path" fill="#FFFFFF" fill-rule="nonzero"></path>
                            <rect id="Rectangle" fill="#FFFFFF" fill-rule="nonzero" x="10.2797188" y="223.524046" width="524.260694" height="1.32377372"></rect>
                            <path d="M422.967837,183.299573 C423.205127,183.734219 423.461933,184.168865 423.738257,184.603511 L3.56325674,184.603511 C3.4842393,184.168865 3.42497623,183.734219 3.36571315,183.299573 L422.967837,183.299573 Z" id="Path" fill="#FFFFFF" fill-rule="nonzero"></path>
                            <path d="M407.342338,144.378978 L0.283895,144.378978 C0.283895,143.944332 0.283895,143.509685 0.303649358,143.075039 L406.966866,143.075039 C407.085254,143.509666 407.203899,143.944391 407.342338,144.378978 Z" id="Path" fill="#FFFFFF" fill-rule="nonzero"></path>
                            <path d="M11.6031027,83.4692256 L11.6031027,228.897931 C11.3858048,227.771802 11.1487525,226.645674 10.9314545,225.519546 C10.8919458,225.302223 10.8525951,225.065143 10.7932728,224.84782 L10.2796595,224.84782 L10.2796595,86.6895575 C10.69458,85.6029819 11.148792,84.5163867 11.6031027,83.4692256 Z" id="Path" fill="#FFFFFF" fill-rule="nonzero"></path>
                            <path d="M50.5190895,35.8557696 C50.9538829,35.5396634 51.3885842,35.2433138 51.8231932,34.9667209 L51.8231932,385.76557 L50.5190895,385.76557 L50.5190895,35.8557696 Z" id="Path" fill="#FFFFFF" fill-rule="nonzero"></path>
                            <path d="M92.0427899,15.6052165 L92.0427899,417.37619 C91.608194,417.25765 91.1737167,417.119354 90.73918,416.981057 L90.73918,16.0398625 C91.1737167,15.8818489 91.6082533,15.7435327 92.0427899,15.6052165 Z" id="Path" fill="#FFFFFF" fill-rule="nonzero"></path>
                            <path d="M132.282655,6.0430831 L132.282655,425.990163 L130.959113,425.990163 L130.959113,6.26040611 C131.39357,6.20103741 131.848059,6.12207013 132.282655,6.0430831 Z" id="Path" fill="#FFFFFF" fill-rule="nonzero"></path>
                            <path d="M172.502251,1.69660316 L172.502251,425.990143 L171.19874,425.990143 L171.19874,1.77562971 C171.633178,1.73601765 172.067715,1.71637956 172.502251,1.69660316 Z" id="Path" fill="#FFFFFF" fill-rule="nonzero"></path>
                            <path d="M212.722401,0.23463177 L212.722401,425.990163 L211.418613,425.990163 L211.418613,0.274145044 C211.853209,0.254269867 212.287805,0.254269867 212.722401,0.23463177 Z" id="Path" fill="#FFFFFF" fill-rule="nonzero"></path>
                            <path d="M252.962029,0.728547699 L252.962029,425.990163 L251.638388,425.990163 L251.638388,0.64952115 C252.072865,0.669218518 252.527176,0.688994912 252.962029,0.728547699 Z" id="Path" fill="#FFFFFF" fill-rule="nonzero"></path>
                            <path d="M293.181902,5.98375392 L293.181902,427.195258 C292.747306,427.175502 292.293054,427.175502 291.858518,427.155745 L291.858518,5.68740436 C292.31271,5.78622706 292.747306,5.88499049 293.181902,5.98375392 Z" id="Path" fill="#FFFFFF" fill-rule="nonzero"></path>
                            <path d="M333.401656,20.504823 L333.401656,428.439966 C332.967061,428.420209 332.532326,428.420209 332.097869,428.400453 L332.097869,19.8331961 C332.532326,20.0504598 332.967179,20.2875395 333.401656,20.504823 Z" id="Path" fill="#FFFFFF" fill-rule="nonzero"></path>
                            <path d="M372.317861,53.2613669 C372.772211,53.854066 373.206807,54.4467651 373.62147,55.0592209 L373.62147,429.605548 C373.186875,429.605548 372.752397,429.585792 372.317861,429.566035 L372.317861,53.2613669 Z" id="Path" fill="#FFFFFF" fill-rule="nonzero"></path>
                        </g>
                        <path d="M530.966102,571.694907 L503.039919,591.711206 C502.892034,591.817203 502.697294,591.831578 502.535451,591.748443 C502.373609,591.665308 502.27185,591.498628 502.27185,591.316665 L502.27185,551.284068 C502.27185,551.102105 502.373609,550.935426 502.535451,550.852291 C502.697294,550.769156 502.892034,550.783531 503.039919,550.889528 L530.966102,570.905827 C531.093284,570.996986 531.168722,571.143877 531.168722,571.300367 C531.168722,571.456857 531.093284,571.603748 530.966102,571.694907 Z" id="Path" stroke="#36B998" stroke-width="2.96396121" fill="none"></path>
                        <path d="M409,224.496752 C416.309715,224.487825 422.230681,218.55894 422.230681,211.248376 C422.230681,203.937812 416.309715,198.008927 409,198" id="Path" stroke="#5CC7DC" stroke-width="2.96396121" fill="none" transform="translate(415.615341, 211.248376) rotate(29.000000) translate(-415.615341, -211.248376) "></path>
                        <path d="M259.444283,290 L296.506975,290 C303.932047,290 309.951258,296.01921 309.951258,303.444283 L309.951258,303.444283 C309.951258,310.869355 303.932047,316.888566 296.506975,316.888566 L259.444283,316.888566 C252.01921,316.888566 246,310.869355 246,303.444283 L246,303.444283 C246,296.01921 252.01921,290 259.444283,290 Z" id="Rectangle" stroke="none" fill="#F06D6E" fill-rule="nonzero" opacity="0.2" transform="translate(277.975629, 303.444283) rotate(180.000000) translate(-277.975629, -303.444283) "></path>
                        <ellipse id="Oval" stroke="none" fill="#F06D6E" fill-rule="nonzero" cx="259.442821" cy="303.444372" rx="13.442821" ry="13.4443718"></ellipse>
                        <path d="M1869.44421,496.034711 C1864.87053,491.506964 1857.50428,491.506964 1852.9306,496.034711 C1850.74197,498.201254 1849.51053,501.153151 1849.51053,504.232935 C1849.51053,507.31272 1850.74197,510.264617 1852.9306,512.431159" id="Path" stroke="#36B998" stroke-width="2.96396121" fill="none"></path>
                        <rect id="Rectangle" stroke="none" fill="#EEBF1B" fill-rule="nonzero" x="292.328616" y="413.502683" width="137.591436" height="104.103095" rx="7.69260566"></rect>
                        <rect id="Rectangle" stroke="none" fill="#5CC7DC" fill-rule="nonzero" opacity="0.2" x="129" y="633" width="163" height="46" rx="23"></rect>
                        <circle id="Oval" stroke="none" fill="#5CC7DC" fill-rule="nonzero" cx="269" cy="656" r="23"></circle>
                        <text id="&lt;/&gt;" stroke="none" fill="#313D3F" fill-rule="evenodd" font-family="DINNextCYR-Regular, DIN Next CYR" font-size="56.4562884" font-weight="normal">
                            <tspan x="318.823675" y="483.249572">&lt;/&gt;</tspan>
                        </text>
                        <rect id="Rectangle" stroke="none" fill="#EEBF1B" fill-rule="nonzero" opacity="0.2" x="1818.68387" y="634.452675" width="115.977244" height="57.6438217" rx="28.8219109"></rect>
                        <ellipse id="Oval" stroke="none" fill="#EEBF1B" fill-rule="nonzero" cx="1905.84235" cy="663.274408" rx="28.8187639" ry="28.8220887"></ellipse>
                        <rect id="Rectangle" stroke="none" fill="#F06D6E" fill-rule="nonzero" opacity="0.2" transform="translate(2050.000000, 505.000000) rotate(180.000000) translate(-2050.000000, -505.000000) " x="1999" y="494" width="102" height="22" rx="10.7558115"></rect>
                        <circle id="Oval" stroke="none" fill="#F06D6E" fill-rule="nonzero" cx="2010" cy="505" r="11"></circle>
                        <rect id="Rectangle" stroke="none" fill="#5CC7DC" fill-rule="nonzero" opacity="0.2" x="1769.13872" y="240.515722" width="95.2492727" height="27.0736065" rx="13.5368033"></rect>
                        <ellipse id="Oval" stroke="none" fill="#5CC7DC" fill-rule="nonzero" cx="1850.85268" cy="254.052456" rx="13.5353306" ry="13.5368922"></ellipse>
                        <path d="M2027.07569,660.56273 C2026.65321,660.56273 2026.47186,660.381384 2026.47186,659.959817 L2026.47186,658.332404 C2026.47186,657.909868 2026.65321,657.728503 2027.07569,657.728503 L2028.64221,657.728503 C2030.63116,657.728503 2031.59573,656.583428 2031.59573,654.352093 L2031.59573,642.595551 C2031.59573,638.074086 2032.4407,636.566299 2034.67077,635.662394 L2034.67077,635.540851 C2032.4407,634.636945 2031.59573,633.009532 2031.59573,628.607694 L2031.59573,617.0923 C2031.59573,614.861006 2030.63116,613.715891 2028.64221,613.715891 L2027.07569,613.715891 C2026.65321,613.715891 2026.47186,613.534525 2026.47186,613.11201 L2026.47186,611.484596 C2026.47186,611.063029 2026.65321,610.881663 2027.07569,610.881663 L2029.12444,610.881663 C2032.9827,610.881663 2034.67069,612.811017 2034.67069,617.211887 L2034.67069,628.969398 C2034.67069,632.225186 2035.81596,633.913378 2038.10649,634.033972 C2038.52897,634.093776 2038.7103,634.334945 2038.7103,634.636906 L2038.7103,636.56626 C2038.7103,636.8682 2038.52897,637.10937 2038.10649,637.169173 C2035.8166,637.289767 2034.67134,638.977959 2034.67069,642.233747 L2034.67069,654.232467 C2034.67069,658.633337 2032.9827,660.562691 2029.12444,660.562691 L2027.07569,660.56273 Z" id="Path" stroke="none" fill="#ECEFF1" fill-rule="nonzero"></path>
                        <path d="M1983.58468,185.891504 C1983.63917,185.569465 1983.93279,185.343966 1984.25794,185.374434 L1985.81283,185.374434 C1986.17552,185.374434 1986.27775,185.529741 1986.17552,185.891504 L1974.72994,221.110022 C1974.6758,221.432274 1974.38195,221.657957 1974.05667,221.627092 L1972.50373,221.627092 C1972.14103,221.627092 1972.03687,221.472734 1972.14103,221.110022 L1983.58468,185.891504 Z" id="Path" stroke="none" fill="#36B998" fill-rule="nonzero"></path>
                        <path d="M2004.65665,185.891504 C2004.71113,185.56946 2005.00476,185.343957 2005.32992,185.374434 L2006.8848,185.374434 C2007.24747,185.374434 2007.34972,185.529741 2007.24747,185.891504 L1995.8019,221.110022 C1995.74776,221.432274 1995.4539,221.657957 1995.12863,221.627092 L1993.57568,221.627092 C1993.21301,221.627092 1993.10882,221.472734 1993.21301,221.110022 L2004.65665,185.891504 Z" id="Path" stroke="none" fill="#36B998" fill-rule="nonzero"></path>
                        <path d="M2025.72667,185.891504 C2025.78116,185.569465 2026.07478,185.343966 2026.39994,185.374434 L2027.95482,185.374434 C2028.31749,185.374434 2028.41974,185.529741 2028.31749,185.891504 L2016.87193,221.110022 C2016.8178,221.432274 2016.52394,221.657957 2016.19867,221.627092 L2014.64572,221.627092 C2014.28303,221.627092 2014.17886,221.472734 2014.28303,221.110022 L2025.72667,185.891504 Z" id="Path" stroke="none" fill="#36B998" fill-rule="nonzero"></path>
                        <path d="M2046.79862,185.891504 C2046.85312,185.569465 2047.14673,185.343966 2047.47189,185.374434 L2049.02677,185.374434 C2049.38946,185.374434 2049.49169,185.529741 2049.38946,185.891504 L2037.94389,221.110022 C2037.88975,221.432274 2037.59589,221.657957 2037.27062,221.627092 L2035.71767,221.627092 C2035.35498,221.627092 2035.25082,221.472734 2035.35498,221.110022 L2046.79862,185.891504 Z" id="Path" stroke="none" fill="#36B998" fill-rule="nonzero"></path>
                        <path d="M2067.8706,185.891504 C2067.92508,185.56946 2068.2187,185.343957 2068.54386,185.374434 L2070.09875,185.374434 C2070.46142,185.374434 2070.56367,185.529741 2070.46142,185.891504 L2059.01584,221.110022 C2058.9617,221.432274 2058.66785,221.657957 2058.34257,221.627092 L2056.78963,221.627092 C2056.42695,221.627092 2056.32277,221.472734 2056.42695,221.110022 L2067.8706,185.891504 Z" id="Path" stroke="none" fill="#36B998" fill-rule="nonzero"></path>
                        <path d="M495.418636,317.975689 C494.860455,314.331482 494.860455,310.62351 495.418636,306.979303 C496.136758,304.479055 498.538536,302.849001 501.126954,303.105145 C503.678801,302.940495 506.013177,304.539943 506.781244,306.979303 C507.339396,310.623512 507.339396,314.33148 506.781244,317.975689 C506.013609,320.415488 503.679093,322.015431 501.126954,321.850815 C498.538233,322.106953 496.136295,320.476384 495.418636,317.975689 L495.418636,317.975689 Z M504.477846,317.45283 C504.825415,315.818894 504.94873,314.14521 504.844388,312.47797 C504.94879,310.810737 504.825474,309.137051 504.477846,307.50313 C503.909864,306.139639 502.577814,305.251458 501.100898,305.251458 C499.623981,305.251458 498.291931,306.139639 497.723949,307.50313 C497.376332,309.137052 497.253017,310.810737 497.357407,312.47797 C497.253076,314.14521 497.376391,315.818892 497.723949,317.45283 C498.291931,318.816321 499.623981,319.704501 501.100898,319.704501 C502.577814,319.704501 503.909864,318.816321 504.477846,317.45283 L504.477846,317.45283 Z M519.608064,303.523827 C519.736523,303.226876 520.018625,303.0253 520.341149,303 L521.755205,303 C522.121727,303 522.225912,303.157243 522.069655,303.523827 L501.441384,339.131096 C501.312922,339.428034 501.030831,339.629601 500.708319,339.654904 L499.294263,339.654904 C498.927721,339.654904 498.823556,339.497661 498.979813,339.131096 L519.608064,303.523827 Z M513.953774,330.176953 C513.878359,328.334008 514.018852,326.488568 514.372389,324.678286 C515.277071,322.343155 517.523654,320.804125 520.027657,320.804125 C522.53166,320.804125 524.778243,322.343155 525.682925,324.678286 C526.036472,326.488566 526.176966,328.334008 526.101539,330.176953 C526.183,332.019686 526.042452,333.865526 525.682925,335.674672 C524.778671,338.010273 522.531943,339.549777 520.027657,339.549777 C517.523371,339.549777 515.276643,338.010273 514.372389,335.674672 C514.012874,333.865532 513.872325,332.019699 513.953774,330.176973 L513.953774,330.176953 Z M520.028615,337.403378 C521.55275,337.552696 522.97287,336.613087 523.431619,335.151813 C523.759587,333.515142 523.882713,331.844025 523.798161,330.176953 C523.88991,328.52708 523.766696,326.872278 523.431619,325.254192 C522.85103,323.888943 521.511085,323.002632 520.027657,323.002632 C518.544229,323.002632 517.204283,323.888943 516.623694,325.254192 C516.288629,326.87228 516.165414,328.52708 516.257152,330.176953 C516.172611,331.844025 516.295737,333.515141 516.623694,335.151813 C517.082877,336.613636 518.50388,337.553309 520.028615,337.403398 L520.028615,337.403378 Z" id="Shape" stroke="none" fill="#ECEFF1" fill-rule="nonzero"></path>
                    </g>
                </g>
            </g>
        </g>
    </g>
</svg>