<?xml version="1.0" encoding="UTF-8"?>
<svg width="64px" height="64px" viewBox="0 0 64 64" version="1.1" xmlns="http://www.w3.org/2000/svg" xmlns:xlink="http://www.w3.org/1999/xlink">
    <!-- Generator: Sketch 53.2 (72643) - https://sketchapp.com -->
    <title>ui-ux-services-icon</title>
    <desc>Created with Sketch.</desc>
    <defs>
        <polygon id="path-1" points="0 0 63.9998 0 63.9998 63.9998 0 63.9998"></polygon>
    </defs>
    <g id="Page-1" stroke="none" stroke-width="1" fill="none" fill-rule="evenodd">
        <g id="Web-application-development-_v1-✅-c2" transform="translate(-414.000000, -3179.000000)">
            <g id="Group-6" transform="translate(0.000000, 1904.000000)">
                <g id="TMS-Helps-you" transform="translate(404.000000, 214.000000)">
                    <g id="Group-20" transform="translate(0.000000, 206.000000)">
                        <g id="Team---08">
                            <g id="Person">
                                <g id="Group">
                                    <g id="Group-4" transform="translate(0.000000, 855.000000)">
                                        <g id="ui-ux-services-icon" transform="translate(10.000000, 0.000000)">
                                            <g>
                                                <g id="Group-3">
                                                    <mask id="mask-2" fill="white">
                                                        <use xlink:href="#path-1"></use>
                                                    </mask>
                                                    <g id="Clip-2"></g>
                                                    <path d="M63.9998,31.9998 C63.9998,49.6728 49.6728,63.9998 31.9998,63.9998 C14.3268,63.9998 -0.0002,49.6728 -0.0002,31.9998 C-0.0002,14.3268 14.3268,-0.0002 31.9998,-0.0002 C49.6728,-0.0002 63.9998,14.3268 63.9998,31.9998" id="Fill-1" fill="#FEEBFF" mask="url(#mask-2)"></path>
                                                </g>
                                                <path d="M39.8143,31.9349 L48.5333,40.6549 C49.0763,41.1969 49.0813,42.0719 48.5343,42.6189 L42.6193,48.5339 C42.0763,49.0769 41.1993,49.0789 40.6543,48.5339 L31.9353,39.8139 L39.8143,31.9349 Z M31.9353,24.0559 L23.3453,15.4669 C22.8003,14.9219 21.9233,14.9239 21.3813,15.4659 L15.4663,21.3809 C14.9183,21.9289 14.9243,22.8029 15.4663,23.3459 L24.0553,31.9349 L31.9353,24.0559 Z" id="Fill-4" fill="#DD78D3"></path>
                                                <path d="M38.3519,17.6385 C40.2479,15.7425 43.3219,15.7435 45.2179,17.6395 L46.2309,18.6525 C48.1269,20.5485 48.1289,23.6205 46.2309,25.5175 L25.4719,46.2765 C25.1999,46.5495 24.6669,46.8195 24.2899,46.8795 L16.9819,48.0425 C16.2239,48.1635 15.7069,47.6465 15.8269,46.8885 L16.9899,39.5795 C17.0509,39.1995 17.3209,38.6695 17.5929,38.3975 L38.3519,17.6385 Z M38.8139,24.0715 L43.2459,28.5035 L44.7269,27.0225 L36.8479,19.1435 L35.3669,20.6245 L37.3359,22.5945 L20.7959,39.1345 C20.3899,39.5405 20.3879,40.2035 20.7959,40.6115 C21.2069,41.0225 21.8649,41.0195 22.2729,40.6115 L38.8139,24.0715 Z M40.3889,37.4345 C39.9769,37.0225 39.9789,36.3635 40.3869,35.9545 L42.1109,34.2315 L43.5919,35.7125 L41.8689,37.4365 C41.4619,37.8425 40.7979,37.8435 40.3889,37.4345 L40.3889,37.4345 Z M42.3679,42.3675 C41.9559,41.9555 41.9589,41.2955 42.3679,40.8865 L45.5669,37.6875 L47.0479,39.1685 L43.8489,42.3675 C43.4369,42.7795 42.7769,42.7765 42.3679,42.3675 L42.3679,42.3675 Z M26.5659,23.6115 C26.1539,23.1995 26.1559,22.5395 26.5639,22.1315 L28.2879,20.4085 L29.7689,21.8895 L28.0449,23.6125 C27.6379,24.0195 26.9749,24.0195 26.5659,23.6115 L26.5659,23.6115 Z M21.6329,21.6325 C21.2209,21.2205 21.2239,20.5605 21.6329,20.1515 L24.8319,16.9525 L26.3129,18.4335 L23.1139,21.6325 C22.7019,22.0435 22.0419,22.0415 21.6329,21.6325 L21.6329,21.6325 Z" id="Fill-6" fill="#7D3D9B"></path>
                                            </g>
                                        </g>
                                    </g>
                                </g>
                            </g>
                        </g>
                    </g>
                </g>
            </g>
        </g>
    </g>
</svg>