<?xml version="1.0" encoding="UTF-8"?>
<svg width="64px" height="64px" viewBox="0 0 64 64" version="1.1" xmlns="http://www.w3.org/2000/svg" xmlns:xlink="http://www.w3.org/1999/xlink">
    <!-- Generator: Sketch 53.2 (72643) - https://sketchapp.com -->
    <title>frontend-icon</title>
    <desc>Created with Sketch.</desc>
    <defs>
        <polygon id="path-1" points="0 0 63.9998 0 63.9998 63.9998 0 63.9998"></polygon>
    </defs>
    <g id="Page-1" stroke="none" stroke-width="1" fill="none" fill-rule="evenodd">
        <g id="Web-application-development-_v1-✅-c2" transform="translate(-1027.000000, -3180.000000)">
            <g id="Group-6" transform="translate(0.000000, 1904.000000)">
                <g id="TMS-Helps-you" transform="translate(404.000000, 214.000000)">
                    <g id="Group-20" transform="translate(623.000000, 192.000000)">
                        <g id="Team---08">
                            <g id="Person">
                                <g id="Group">
                                    <g id="Group-4" transform="translate(0.000000, 870.000000)">
                                        <g id="frontend-icon">
                                            <g>
                                                <g id="Group-3">
                                                    <mask id="mask-2" fill="white">
                                                        <use xlink:href="#path-1"></use>
                                                    </mask>
                                                    <g id="Clip-2"></g>
                                                    <path d="M63.9998,31.9998 C63.9998,49.6728 49.6728,63.9998 31.9998,63.9998 C14.3268,63.9998 -0.0002,49.6728 -0.0002,31.9998 C-0.0002,14.3268 14.3268,-0.0002 31.9998,-0.0002 C49.6728,-0.0002 63.9998,14.3268 63.9998,31.9998" id="Fill-1" fill="#E5FCFF" mask="url(#mask-2)"></path>
                                                </g>
                                                <path d="M49.9139,47.4998 L14.0859,47.4998 C13.4859,47.4998 12.9999,47.0138 12.9999,46.4138 L12.9999,19.4568 C12.9999,17.2718 14.7719,15.4998 16.9569,15.4998 L47.0429,15.4998 C49.2279,15.4998 50.9999,17.2718 50.9999,19.4568 L50.9999,46.4138 C50.9999,47.0138 50.5139,47.4998 49.9139,47.4998" id="Fill-4" fill="#81DBE2"></path>
                                                <path d="M50.9998,24.159 L12.9998,24.159 L12.9998,19.457 C12.9998,17.272 14.7718,15.5 16.9568,15.5 L47.0428,15.5 C49.2288,15.5 50.9998,17.272 50.9998,19.457 L50.9998,24.159 Z" id="Fill-6" fill="#3999A5"></path>
                                                <path d="M19.7132,19.8294 C19.7132,20.9184 18.8302,21.8004 17.7422,21.8004 C16.6532,21.8004 15.7702,20.9184 15.7702,19.8294 C15.7702,18.7404 16.6532,17.8584 17.7422,17.8584 C18.8302,17.8584 19.7132,18.7404 19.7132,19.8294" id="Fill-8" fill="#E5FCFF"></path>
                                                <path d="M25.1341,19.8294 C25.1341,20.9184 24.2521,21.8004 23.1631,21.8004 C22.0741,21.8004 21.1921,20.9184 21.1921,19.8294 C21.1921,18.7404 22.0741,17.8584 23.1631,17.8584 C24.2521,17.8584 25.1341,18.7404 25.1341,19.8294" id="Fill-10" fill="#E5FCFF"></path>
                                                <path d="M30.5555,19.8294 C30.5555,20.9184 29.6725,21.8004 28.5845,21.8004 C27.4955,21.8004 26.6125,20.9184 26.6125,19.8294 C26.6125,18.7404 27.4955,17.8584 28.5845,17.8584 C29.6725,17.8584 30.5555,18.7404 30.5555,19.8294" id="Fill-12" fill="#E5FCFF"></path>
                                                <path d="M42.9495,36.7454 L38.2225,41.4814 C37.4705,42.2334 36.2525,42.2334 35.5005,41.4814 C34.7485,40.7294 34.7485,39.5114 35.5005,38.7594 L40.2275,34.0234 C40.9795,33.2714 42.1985,33.2714 42.9495,34.0234 C43.7015,34.7744 43.7015,35.9934 42.9495,36.7454" id="Fill-14" fill="#5FC1CE"></path>
                                                <path d="M40.2323,36.7381 L35.4963,32.0111 C34.7443,31.2591 34.7443,30.0411 35.4963,29.2891 C36.2473,28.5371 37.4663,28.5371 38.2183,29.2891 L42.9543,34.0161 C43.7063,34.7681 43.7063,35.9871 42.9543,36.7381 C42.2023,37.4901 40.9833,37.4901 40.2323,36.7381" id="Fill-16" fill="#3999A5"></path>
                                                <path d="M21.0501,34.0252 L25.7771,29.2892 C26.5291,28.5372 27.7481,28.5372 28.4991,29.2892 C29.2511,30.0412 29.2511,31.2592 28.4991,32.0112 L23.7731,36.7472 C23.0211,37.4992 21.8021,37.4992 21.0501,36.7472 C20.2991,35.9962 20.2991,34.7772 21.0501,34.0252" id="Fill-18" fill="#5FC1CE"></path>
                                                <path d="M23.7679,34.0325 L28.5039,38.7595 C29.2559,39.5115 29.2559,40.7295 28.5039,41.4815 C27.7519,42.2335 26.5339,42.2335 25.7819,41.4815 L21.0459,36.7545 C20.2939,36.0035 20.2939,34.7835 21.0459,34.0325 C21.7969,33.2805 23.0159,33.2805 23.7679,34.0325" id="Fill-20" fill="#3999A5"></path>
                                            </g>
                                        </g>
                                    </g>
                                </g>
                            </g>
                        </g>
                    </g>
                </g>
            </g>
        </g>
    </g>
</svg>